<svg width="386" height="175" viewBox="0 0 386 175" fill="none" xmlns="http://www.w3.org/2000/svg">
<path d="M2.32982 174.744C1.77796 174.766 1.31297 174.336 1.29123 173.784L0.936961 164.791C0.915225 164.239 1.34497 163.774 1.89682 163.752C2.44868 163.731 2.91367 164.16 2.93542 164.712L3.25032 172.706L11.2441 172.391C11.796 172.369 12.261 172.799 12.2827 173.351C12.3045 173.903 11.8747 174.368 11.3228 174.39L2.32982 174.744ZM321.006 8.48255L321.112 9.47693L321.006 8.48255ZM1.55607 173.066L10.4755 163.415L11.9442 164.772L3.02485 174.423L1.55607 173.066ZM320.9 7.4882L384.997 0.655145L385.209 2.64386L321.112 9.47693L320.9 7.4882ZM10.4755 163.415C91.6603 75.5714 201.96 20.1677 320.9 7.4882L321.112 9.47693C202.654 22.1051 92.8004 77.2845 11.9442 164.772L10.4755 163.415Z" fill="black"/>
</svg>
