<svg width="718" height="126" viewBox="0 0 718 126" fill="none" xmlns="http://www.w3.org/2000/svg">
<path d="M0.638203 121.752C0.123331 121.552 -0.132038 120.973 0.0677926 120.458L3.32431 112.068C3.52414 111.553 4.10353 111.298 4.61838 111.497C5.13325 111.697 5.38862 112.277 5.18879 112.791L2.29411 120.249L9.75205 123.144C10.2669 123.344 10.5223 123.923 10.3225 124.438C10.1226 124.953 9.54324 125.208 9.02838 125.009L0.638203 121.752ZM0.596689 119.905L148.22 54.8349L149.027 56.665L1.40338 121.735L0.596689 119.905ZM625.955 39.3212L717.31 72.6933L716.624 74.5719L625.269 41.1998L625.955 39.3212ZM148.22 54.8349C299.485 -11.8403 470.683 -17.3996 625.955 39.3212L625.269 41.1998C470.482 -15.3438 299.819 -9.80179 149.027 56.665L148.22 54.8349Z" fill="black"/>
</svg>
