<svg width="34" height="40" viewBox="0 0 34 40" fill="none" xmlns="http://www.w3.org/2000/svg">
<path fill-rule="evenodd" clip-rule="evenodd" d="M20.3957 14.7654C21.5545 14.2389 23.0331 13.4557 24.5247 12.3634C24.8075 13.0094 24.821 13.5647 24.6473 14.0064C24.5242 14.3177 24.3039 14.5843 24.0195 14.7925C23.7114 15.0175 23.3311 15.1756 22.9142 15.2535C22.1231 15.4019 21.2107 15.2656 20.3957 14.7654ZM20.3829 20.5883L21.8583 21.5131C18.7193 23.1264 17.7672 26.2981 16.661 29.381C15.7802 26.2263 15.0594 22.9941 12.0451 21.1586L13.5834 20.3426C13.7312 20.2928 13.8594 20.1975 13.9496 20.0703C14.0399 19.9432 14.0876 19.7907 14.0859 19.6348C14.0534 16.709 14.8887 15.4459 15.9818 14.6734C16.3738 14.3966 16.7956 14.2658 17.2066 14.2807C17.6175 14.2955 18.0288 14.4564 18.4 14.7607C19.4344 15.6101 20.1764 16.9303 19.9328 19.8461C19.9199 20.0015 19.9565 20.157 20.0373 20.2903C20.1182 20.4236 20.2392 20.5279 20.3829 20.5883ZM17.6722 1.39401C19.4123 1.50371 21.1462 1.90493 22.6378 2.61747C23.6707 3.11148 24.6281 3.74933 25.4887 4.50179C25.8774 4.84149 26.1957 5.16759 26.5458 5.54242C27.5242 5.61167 28.995 4.57519 29.6964 3.58096C28.4172 7.28937 23.0378 11.5289 19.3632 13.0927C19.3617 13.0921 19.3607 13.0912 19.3597 13.0904C18.7291 12.5718 18.0087 12.2978 17.2792 12.2715C16.5497 12.2451 15.8115 12.4664 15.1451 12.9381C15.144 12.9387 15.143 12.9397 15.1415 12.9402C11.5891 11.1152 6.52989 6.49855 5.5216 2.70748C6.14929 3.74974 7.54152 4.88967 8.52229 4.8912C8.89867 4.54275 9.23973 4.24034 9.65176 3.92957C10.5644 3.24118 11.5654 2.6741 12.6312 2.25592C14.1705 1.65289 15.9289 1.37785 17.6722 1.39401ZM13.9908 14.534C12.8731 13.9253 11.4547 13.0374 10.0461 11.8402C9.71736 12.4641 9.66385 13.017 9.80509 13.4701C9.90546 13.7895 10.1059 14.0713 10.3745 14.2995C10.6657 14.5461 11.0336 14.7313 11.4438 14.839C12.2221 15.0441 13.1418 14.974 13.9908 14.534Z" fill="black"/>
<path fill-rule="evenodd" clip-rule="evenodd" d="M26.1636 11.0181C26.9911 10.2413 27.7267 9.375 28.3211 8.59971L28.5888 9.15079C29.4468 11.0345 29.8608 12.8947 29.7858 14.9687L29.6649 18.2597L29.6207 19.9663C29.5363 24.1571 30.2894 28.4274 32.2022 32.3796L28.0322 28.761L24.8149 33.5829L21.7307 30.4619L16.3295 38.5571L11.5266 30.0933L8.22536 32.9836L5.36443 27.9421L0.944027 31.2503C3.13701 27.4465 4.19636 23.2417 4.4148 19.0557L4.49381 17.3503L4.61073 14.0592C4.68567 11.9851 5.23267 10.1596 6.22461 8.34285L6.5313 7.81254C7.06817 8.62869 7.73927 9.54571 8.5086 10.3803L8.24057 10.8892C7.71985 11.8775 7.51883 12.9964 7.85751 14.0796C8.07586 14.7773 8.49846 15.3842 9.05448 15.8559C9.59436 16.3139 10.2414 16.6329 10.9243 16.8128C11.3692 16.93 11.8246 16.9881 12.2791 16.9903C12.1515 17.587 12.0827 18.2081 12.0568 18.8426L7.92063 21.0364L10.9839 22.9019C11.2287 23.051 11.4608 23.2201 11.6778 23.4075C14.1718 25.815 15.4742 32.7176 16.4184 36.1004C17.6044 32.7946 19.4014 26.0039 22.0628 23.7827C22.2927 23.6115 22.5364 23.4596 22.7914 23.3285L25.9813 21.6889L22.014 19.2024C22.034 18.5677 22.0102 17.9432 21.926 17.3389C22.3795 17.3695 22.8379 17.3444 23.2901 17.2596C23.9843 17.1295 24.6527 16.858 25.2241 16.4401C25.8126 16.0098 26.278 15.435 26.546 14.7549C26.9621 13.6989 26.8423 12.5686 26.3944 11.5451L26.1637 11.0182L26.1636 11.0181Z" fill="black"/>
</svg>
