<svg width="39" height="32" viewBox="0 0 39 32" fill="none" xmlns="http://www.w3.org/2000/svg">
<path fill-rule="evenodd" clip-rule="evenodd" d="M29.4342 31.1721C29.9338 31.5258 30.5777 31.6142 31.1517 31.397C31.7258 31.1783 32.1478 30.688 32.275 30.0938C33.6232 23.7575 36.8937 7.71989 38.121 1.95614C38.2141 1.52173 38.0589 1.07025 37.7176 0.780119C37.3763 0.489992 36.903 0.406212 36.481 0.562911C29.9757 2.97081 9.94143 10.4877 1.75271 13.5178C1.23297 13.7101 0.894745 14.2097 0.911811 14.7574C0.930429 15.3066 1.29968 15.7829 1.83184 15.9427C5.50419 17.0412 10.3246 18.5694 10.3246 18.5694C10.3246 18.5694 12.5774 25.3726 13.7519 28.8324C13.8993 29.2668 14.239 29.6082 14.6874 29.7261C15.1342 29.8424 15.6121 29.7199 15.9457 29.4049C17.8323 27.6238 20.749 24.8699 20.749 24.8699C20.749 24.8699 26.2909 28.9333 29.4342 31.1721ZM12.3524 17.7099L14.9574 26.302L15.5361 20.8609C15.5361 20.8609 25.6005 11.7832 31.3379 6.60903C31.5054 6.45698 31.5287 6.20254 31.3891 6.02412C31.251 5.8457 30.9966 5.80381 30.8057 5.92483C24.1561 10.1712 12.3524 17.7099 12.3524 17.7099Z" fill="black"/>
</svg>
