<svg width="854" height="26" viewBox="0 0 854 26" fill="none" xmlns="http://www.w3.org/2000/svg">
<path d="M8 16.126C14.2084 14.0829 19.5795 12.297 29.2016 11.5169C51.3312 9.72279 76.4863 10.6873 97.4767 13.0603C113.778 14.9032 128.473 16.0625 146.181 15.0054C168.295 13.6854 187.001 9.79158 210.527 10.4598C219.795 10.723 228.499 11.7087 237.511 12.2992C252.917 13.3085 268.708 13.745 284.362 14.3077C304.696 15.0386 324.61 16.2011 344.779 17.0562C377.507 18.4437 408.339 14.6545 440.78 14.6037C464.46 14.5666 488.108 14.1894 511.798 14.2231C524.536 14.2413 537.37 14.2676 549.975 14.8574C559.121 15.2853 567.295 16.3358 576.144 17.0351C592.172 18.3019 609.807 18.2366 626.034 17.3311C650.351 15.9742 670.895 12.2476 694.013 9.99464C708.802 8.55337 716.22 10.4003 729.151 12.0666C749.205 14.6507 777.205 13.6618 798.316 12.9969C811.737 12.5742 834.639 12.0989 843.981 8.76838C848.823 7.04223 843.651 8.67967 841.979 9.2758" stroke="black" stroke-width="16" stroke-linecap="round"/>
</svg>
