<svg width="32" height="38" viewBox="0 0 32 38" fill="none" xmlns="http://www.w3.org/2000/svg">
<g clip-path="url(#clip0_17_477)">
<path fill-rule="evenodd" clip-rule="evenodd" d="M19.3863 13.6462C20.5254 13.0783 21.9748 12.2422 23.4259 11.0967C23.7318 11.732 23.7653 12.2865 23.6077 12.7342C23.496 13.0497 23.2855 13.3241 23.0087 13.5425C22.7089 13.7784 22.3346 13.9502 21.9208 14.043C21.1356 14.2199 20.2188 14.1166 19.3863 13.6462ZM19.5838 19.4658L21.0917 20.3367C18.0129 22.0623 17.176 25.2663 16.1818 28.3871C15.1877 25.2663 14.3506 22.0623 11.272 20.3367L12.7799 19.4658C12.9257 19.4107 13.0504 19.3108 13.136 19.1805C13.2216 19.0501 13.2638 18.896 13.2565 18.7403C13.1184 15.8176 13.9075 14.5251 14.972 13.7136C15.3538 13.4229 15.7706 13.277 16.1818 13.277C16.593 13.277 17.0098 13.4229 17.3917 13.7136C18.4562 14.5251 19.2453 15.8176 19.1072 18.7403C19.0999 18.896 19.1421 19.0501 19.2277 19.1805C19.3133 19.3108 19.438 19.4107 19.5838 19.4658ZM16.1818 0.381897C17.9247 0.428691 19.672 0.767045 21.1883 1.42526C22.2384 1.88165 23.2182 2.48451 24.1054 3.20541C24.5061 3.53085 24.836 3.84525 25.1994 4.20719C26.1796 4.24107 27.6121 3.15216 28.2772 2.13325C27.1326 5.88543 21.9099 10.3164 18.2941 12.0119C18.2926 12.0113 18.2916 12.0104 18.2905 12.0097C17.6416 11.5142 16.9117 11.2665 16.1818 11.2665C15.4518 11.2665 14.7221 11.5142 14.0732 12.0097C14.0721 12.0103 14.0711 12.0114 14.0696 12.0119C10.4537 10.3164 5.23107 5.88543 4.08655 2.13325C4.75147 3.15216 6.18395 4.24107 7.16413 4.20719C7.52768 3.84537 7.8576 3.53085 8.25814 3.20541C9.14536 2.48451 10.1252 1.88165 11.1752 1.42526C12.6917 0.767045 14.439 0.428691 16.1818 0.381897ZM12.9772 13.6462C11.8383 13.0783 10.3888 12.2422 8.93783 11.0967C8.63187 11.732 8.59835 12.2865 8.75586 12.7342C8.8677 13.0497 9.07821 13.3241 9.35487 13.5425C9.65475 13.7784 10.0291 13.9502 10.4429 14.043C11.2281 14.2199 12.1447 14.1166 12.9772 13.6462Z" fill="black"/>
<path fill-rule="evenodd" clip-rule="evenodd" d="M25.0152 9.69298C25.8141 8.88682 26.5179 7.99451 27.0839 7.19827L27.3714 7.73932C28.2969 9.59083 28.7777 11.4349 28.7777 13.5102L28.7757 16.8034L28.7931 18.5106C28.8601 22.7016 29.7669 26.942 31.8212 30.8225L27.5232 27.3568L24.4821 32.2917L21.2872 29.2842L16.1819 37.5691L11.0765 29.2843L7.88177 32.2919L4.84067 27.3569L0.542603 30.8226C2.59681 26.9421 3.50364 22.7018 3.57079 18.5107L3.58817 16.8035L3.58618 13.5103C3.58618 11.4349 4.0669 9.59083 4.9926 7.73944L5.27994 7.1984C5.84593 7.99463 6.5497 8.88682 7.34867 9.69311L7.09918 10.2113C6.61449 11.2178 6.454 12.3432 6.83158 13.4135C7.07498 14.1029 7.51921 14.6941 8.0919 15.1454C8.64797 15.5837 9.30606 15.8791 9.99505 16.0342C10.4439 16.1352 10.9011 16.1768 11.3554 16.1627C11.2494 16.7636 11.2031 17.3868 11.2001 18.0218L7.14585 20.3634L10.2745 22.1171C10.5245 22.2573 10.7626 22.418 10.9862 22.5974C13.5655 24.9132 15.1163 31.7643 16.182 35.1108C17.2478 31.7643 18.7985 24.9132 21.378 22.5974C21.6015 22.4179 21.8396 22.2573 22.0897 22.1171L25.2183 20.3634L21.1639 18.0218C21.1609 17.3868 21.1146 16.7636 21.0086 16.1627C21.4629 16.1768 21.9201 16.1352 22.3689 16.0342C23.0579 15.8791 23.7162 15.5837 24.2721 15.1454C24.8447 14.6941 25.289 14.1029 25.5323 13.4135C25.91 12.3432 25.7494 11.2179 25.2648 10.2113L25.0153 9.69311L25.0152 9.69298Z" fill="black"/>
</g>
<defs>
<clipPath id="clip0_17_477">
<rect width="31.2786" height="37.2364" fill="white" transform="translate(0.542542 0.381836)"/>
</clipPath>
</defs>
</svg>
