<svg width="38" height="32" viewBox="0 0 38 32" fill="none" xmlns="http://www.w3.org/2000/svg">
<path fill-rule="evenodd" clip-rule="evenodd" d="M28.5866 31.1722C29.0862 31.5259 29.7301 31.6144 30.3041 31.3971C30.8782 31.1784 31.3002 30.6881 31.4274 30.0939C32.7756 23.7577 36.0461 7.72001 37.2734 1.95626C37.3665 1.52185 37.2113 1.07037 36.87 0.780241C36.5287 0.490114 36.0555 0.406334 35.6335 0.563033C29.1281 2.97093 9.09383 10.4878 0.905118 13.5179C0.385372 13.7103 0.0471496 14.2099 0.0642159 14.7575C0.0828337 15.3067 0.452086 15.7831 0.984244 15.9429C4.6566 17.0413 9.47705 18.5695 9.47705 18.5695C9.47705 18.5695 11.7298 25.3727 12.9043 28.8325C13.0517 29.267 13.3914 29.6083 13.8398 29.7262C14.2866 29.8426 14.7645 29.72 15.0981 29.405C16.9847 27.6239 19.9014 24.8701 19.9014 24.8701C19.9014 24.8701 25.4433 28.9334 28.5866 31.1722ZM11.5048 17.71L14.1098 26.3021L14.6885 20.861C14.6885 20.861 24.7529 11.7833 30.4903 6.60915C30.6579 6.45711 30.6811 6.20266 30.5415 6.02424C30.4034 5.84582 30.149 5.80393 29.9581 5.92495C23.3085 10.1713 11.5048 17.71 11.5048 17.71Z" fill="black"/>
</svg>
