<svg width="87" height="84" viewBox="0 0 87 84" fill="none" xmlns="http://www.w3.org/2000/svg">
<path d="M85.1242 42.1828C85.092 64.5129 66.3042 82.6557 43.0659 82.6221C19.8438 82.5886 1.09212 64.3915 1.12433 42.0616C1.15653 19.7314 19.9443 1.58871 43.1827 1.62222C66.4211 1.65574 85.1564 19.8526 85.1242 42.1828Z" fill="#FF060A" stroke="black" stroke-width="2"/>
<path d="M67.4314 34.4241C65.0231 32.2945 61.6785 29.0507 58.9689 26.7547L58.8016 26.6547C58.5339 26.455 58.2328 26.2885 57.9147 26.1717C51.3519 24.9996 20.8148 19.5241 20.2286 19.5897C20.0611 19.606 19.8935 19.6723 19.7595 19.7551L19.6085 19.8712C19.424 20.0536 19.273 20.2693 19.189 20.5184L19.1553 20.6179L19.1545 21.1661L19.1544 21.2491C22.5743 30.3564 36.1124 60.1741 38.7817 67.1874C38.9485 67.6693 39.2486 68.5668 39.8179 68.6174L39.9519 68.6176C40.2533 68.618 41.5619 66.9755 41.5619 66.9755C41.5619 66.9755 64.928 40.1343 67.2933 37.2808C67.5953 36.9324 67.8638 36.5507 68.0989 36.1524C68.1662 35.8369 68.1333 35.5213 68.0164 35.2221C67.8996 34.923 67.6823 34.6403 67.4314 34.4241ZM47.5659 37.5346L57.5245 29.7091L63.3616 34.8334L47.5659 37.5346ZM43.6984 37.0141L26.5863 23.635L54.3109 28.5417L43.6984 37.0141ZM45.234 40.5045L62.7711 37.839L42.6928 60.7816L45.234 40.5045ZM24.2566 24.9771L42.2713 39.5369L39.6282 60.7938L24.2566 24.9771Z" fill="white"/>
</svg>
