<svg width="76" height="76" viewBox="0 0 76 76" fill="none" xmlns="http://www.w3.org/2000/svg">
<path d="M3.74672 1.69933L73.6208 36.6364C73.8738 36.7632 74.0866 36.9579 74.2353 37.1987C74.384 37.4395 74.4627 37.7171 74.4627 38.0001C74.4627 38.283 74.384 38.5606 74.2353 38.8014C74.0866 39.0422 73.8739 39.2368 73.6208 39.3637L3.74685 74.3007C3.4915 74.4284 3.2053 74.482 2.9211 74.4551C2.63687 74.4283 2.36585 74.3223 2.1389 74.149C1.91197 73.9758 1.73819 73.7423 1.63736 73.4753C1.54152 73.2214 1.51523 72.9467 1.56083 72.6798L9.0863 46.6651C9.16614 46.3895 9.3221 46.1418 9.53629 45.9508C9.75036 45.7599 10.0139 45.6333 10.2967 45.5854C10.2965 45.5854 10.2969 45.5853 10.2967 45.5854L40.8796 40.4631L40.8963 40.4604L40.913 40.457C43.6025 39.9252 43.6025 36.0749 40.913 35.5431L40.8963 35.5398L40.8796 35.537L10.2974 30.4149C10.2969 30.4147 10.2965 30.4147 10.296 30.4146C10.0135 30.3666 9.75024 30.2401 9.53629 30.0494C9.3221 29.8583 9.16614 29.6108 9.0863 29.3351L1.56083 3.32032C1.51523 3.05333 1.54152 2.77872 1.63736 2.52483C1.73819 2.25773 1.91197 2.02429 2.1389 1.85107C2.36585 1.67784 2.63684 1.57178 2.92109 1.54496C3.20532 1.51813 3.49138 1.57162 3.74672 1.69933Z" fill="#6EAA42"/>
<path d="M74.2352 37.1987C74.0866 36.9579 73.8738 36.7632 73.6208 36.6364L3.74672 1.69933C3.49138 1.57162 3.20532 1.51813 2.92109 1.54496C2.63684 1.57178 2.36585 1.67784 2.1389 1.85107C1.91197 2.02429 1.73819 2.25773 1.63736 2.52483C1.54152 2.77872 1.51523 3.05333 1.56083 3.32032L9.0863 29.3351C9.16614 29.6108 9.3221 29.8583 9.53629 30.0494C9.75024 30.2401 10.0135 30.3666 10.296 30.4146C10.2965 30.4147 10.2969 30.4147 10.2974 30.4149L40.8796 35.537L40.8963 35.5398L40.913 35.5431C43.6025 36.0749 43.6025 39.9252 40.913 40.457L40.8963 40.4604L40.8796 40.4631L10.2967 45.5854M74.2352 37.1987L75.2241 36.5883M74.2352 37.1987C74.384 37.4395 74.4627 37.7171 74.4627 38.0001C74.4627 38.283 74.384 38.5606 74.2352 38.8014M74.2352 38.8014L75.2241 39.4119M74.2352 38.8014C74.0866 39.0422 73.8739 39.2368 73.6208 39.3637L3.74685 74.3007C3.4915 74.4284 3.2053 74.482 2.9211 74.4551M2.9211 74.4551L2.81189 75.6122M2.9211 74.4551C2.63687 74.4283 2.36585 74.3223 2.1389 74.149C1.91197 73.9758 1.73819 73.7424 1.63736 73.4753C1.54152 73.2214 1.51523 72.9467 1.56083 72.6798L9.0863 46.6651C9.16614 46.3895 9.3221 46.1418 9.53629 45.9508C9.75036 45.7599 10.0139 45.6333 10.2967 45.5854M10.2967 45.5854C10.2969 45.5853 10.2965 45.5854 10.2967 45.5854Z" stroke="black" stroke-width="2"/>
</svg>
